<?xml version="1.0" encoding="UTF-8"?>
<svg viewBox="0 0 755.43 430.48" xmlns="http://www.w3.org/2000/svg">
 <g fill="#aa7655" stroke="#44260e">
  <g stroke-linecap="round">
   <path d="m213.42 391.38c10.929-29.784 25.29-49.837 39.396-65.857 18.642-19.367 38.549-25.483 58.26-30.044 21.007-5.6574 40.494 11.802 59.667 33.078 17.387 21.31 35.128 39.601 53.651 51.639 14.628 9.2018 29.461 9.9307 44.289 5.3176 3.8808-0.76672 7.4407-4.7602 11.094-7.9517l-15.436 32.981c-3.4808 2.222-6.9048 5.1545-10.523 5.3691-14.65 2.7217-29.263 0.70105-43.615-8.6372-18.43-12.644-36.018-32.002-53.413-52.903-18.933-20.877-38.186-37.208-58.882-31.999-20.188 4.7058-40.454 12.488-59.299 34.166-12.742 15.718 13.52-28.167-6.7193 12.525l-18.468 22.316z" stroke-width="9.296"/>
   <path d="m425.83 219.24a210.59 210.59 0 1 1 -421.18 0 210.59 210.59 0 1 1 421.18 0z" stroke-width="7"/>
  </g>
  <g stroke-width="7.968">
   <path d="m100.47 43.537s72.978-9.637 136.26-4.769c63.284 4.868 116.87 24.241 116.87 24.241"/>
   <path d="m8.4173 185.15s105.77-14.222 208.88-7.1412c103.11 7.0807 203.57 35.464 203.57 35.464"/>
   <path d="m26.119 142.67s95.158-16.984 192.96-10.789c97.802 6.1956 198.25 35.571 198.25 35.571"/>
   <path d="m54.442 91.332s88.052-11.314 173.46-5.1189c85.411 6.1956 168.18 29.901 168.18 29.901"/>
   <path d="m210.22 179.84s9.5402 63.001 3.3445 124.07c-6.1956 61.071-28.127 120.21-28.127 120.21"/>
   <path d="m256.24 181.61s12.106 59.399 6.3531 120.47c-5.753 61.071-29.365 123.81-29.365 123.81"/>
   <path d="m302.27 186.92s13.125 54.09 8.2569 111.62c-4.868 57.531-27.729 118.5-27.729 118.5"/>
   <path d="m350.06 195.77s10.431 37.641 5.5632 86.764c-4.868 49.122-25.035 109.73-25.035 109.73"/>
   <path d="m390.78 208.16s7.8314 31.085 4.7336 65.604c-3.0978 34.518-17.125 72.47-17.125 72.47"/>
   <path d="m160.22 176.55s9.29 18.226 22.808 34.115 31.263 29.442 31.263 29.442"/>
   <path d="m118.48 176.55s18.909 38.279 42.862 68.16c23.952 29.881 52.948 51.365 52.948 51.365"/>
   <path d="m78.64 178.45s31.847 55.021 63.863 96.523 64.2 69.485 64.2 69.485"/>
   <path d="m42.593 181.3s35.177 63.971 74.07 114.72c38.893 50.751 81.502 88.281 81.502 88.281"/>
   <path d="m9.3915 195.52s35.252 68.67 78.888 125.82c43.636 57.154 95.657 102.79 95.657 102.79"/>
   <path d="m5.5971 247.7s28.178 52.357 63.039 95.282c34.862 42.925 76.407 76.417 76.407 76.417"/>
  </g>
 </g>
</svg>
