<?xml version="1.0" encoding="UTF-8"?>
<svg viewBox="0 0 744.09 1052.4" xmlns="http://www.w3.org/2000/svg">
 <path d="m439.63 186.56c-1.6613 0.11914-2.6447 2.0267-2.6446 5.8182 0 3.3604-4.3498 11.54-9.7474 18.135-15.544 18.991-17.832 25.475-17.832 51.835 0 22.774-1.0426 26.428-12.921 44.884-7.1108 11.048-16.005 25.112-19.797 31.282-3.7925 6.17-21.656 22.581-39.67 36.496s-35.3 28.673-38.461 32.794c-5.3415 6.9636-8.7675 7.5222-48.284 7.6317-38.804 0.10758-44.228 0.91757-62.263 9.3696-22.911 10.738-37.176 23.655-37.176 33.7 0 9.9858 8.1777 8.735 21.913-3.3247 17.416-15.291 36.464-20.722 70.801-20.25 45.465 0.62374 49.281 2.0673 54.48 20.024 5.1267 17.707 3.1793 21.41-16.321 31.358-11.722 5.9801-12.792 7.8794-14.886 25.691-2.968 25.253-0.22065 35.169 11.032 39.292 13.453 4.929 17.748 4.5873 20.175-1.7379 1.2888-3.3587-0.15625-7.416-3.5514-9.8986-9.1525-6.6925-6.6543-17.583 7.2539-32.189 14.978-15.73 36.261-23.312 50.475-17.908 10.516 3.9984 10.435 3.6842 3.7025 19.797-4.9855 11.932-4.8034 12.909 2.6446 21.006 9.7271 10.574 32.236 21.208 45.11 21.308 8.5733 0.06688 9.5773-0.99853 8.614-9.3696-0.91167-7.9234-3.139-9.8181-13.223-11.259-11.702-1.6718-11.994-2.1158-11.032-15.49 0.54526-7.5849 1.5032-28.532 2.1157-46.546l1.1334-32.718 27.656-28.411c26.908-27.607 27.925-28.352 38.158-24.784 12.593 4.3898 16.77 8.953 18.361 20.099 0.65573 4.592 3.0376 9.0064 5.2893 9.7474 4.5649 1.5024 18.362-10.865 18.361-16.472 0-1.9774-7.1122-11.198-15.792-20.477l-15.792-16.85 13.45-4.0803c13.751-4.1199 42.549-3.211 53.422 1.6624 8.5526 3.8333 8.1938-11.893-0.52893-22.668-5.8297-7.2017-9.6239-8.1986-33.096-8.5384-29.636-0.42897-32.558-2.4155-32.642-22.517-0.04493-10.724 1.3441-13.067 9.5963-15.944 24.267-8.4594 25.416-17.792 8.2362-67.174-9.2676-26.639-12.866-31.326-16.624-21.535-3.0688 7.9971-14.285 6.1649-20.553-3.4003-3.7138-5.6679-7.007-8.5405-9.1429-8.3873z"/>
</svg>
